<svg width="137" height="141" viewBox="0 0 137 141" fill="none" xmlns="http://www.w3.org/2000/svg">
<path d="M126.324 6.14298L121.632 4.13948C108.381 0.521207 25.7225 116.276 12.5608 113.136L17.1939 115.14C30.3261 118.25 112.985 2.49481 126.324 6.14298Z" fill="url(#paint0_linear_198_102)"/>
<path d="M116.736 2.10195L112.103 0.098443C104.165 -2.05458 77.2805 31.4966 50.0718 62.6556C42.34 52.3092 37.8249 48.362 33.723 48.6012L28.5291 49.289C33.2213 48.9002 38.0905 53.894 47.0027 66.1842C45.9698 67.3803 44.937 68.5764 43.9041 69.7426C42.7237 68.098 30.8014 49.6478 23.3058 50.0664L18.1119 50.7542C25.7551 50.1561 38.4446 70.0417 40.835 73.331C39.8021 74.557 38.7693 75.7532 37.7364 76.9194C32.5425 68.6661 20.4727 51.5018 13.1541 51.5018C13.1541 51.5018 9.81946 51.2925 6.75036 52.2195C-0.951877 54.5818 -1.74866 102.337 2.76645 108.856C2.88449 109.035 3.09106 109.185 3.29764 109.304C4.27148 109.753 7.48813 111.158 7.48813 111.158C20.7088 114.298 103.486 -1.51632 116.736 2.10195ZM14.8953 102.038C14.5116 94.5622 14.9543 64.2704 17.2561 57.5123C18.407 58.7383 19.6465 60.1737 20.9744 61.8482C20.7088 65.3768 19.1743 87.6845 19.5874 97.3132C17.9348 99.0476 16.3708 100.632 14.8953 102.038ZM34.6673 80.4479C31.008 84.6942 27.5553 88.6414 24.3386 92.1699C24.3681 90.3757 24.6042 71.4172 25.46 67.7391C25.8437 68.2774 30.0342 74.0487 34.6673 80.4479ZM10.3506 52.8773C11.295 53.1764 12.2688 53.6847 13.3312 54.4024C10.2031 62.7154 8.99316 94.8612 10.6753 105.716C9.28827 106.793 8.01932 107.66 6.89792 108.258C6.86841 108.078 6.8389 107.899 6.77988 107.72C4.06491 98.7785 4.5961 55.2696 10.3506 52.8773Z" fill="url(#paint1_linear_198_102)"/>
<path d="M135.951 10.291L132.085 8.6762C118.746 5.02803 36.0577 120.723 22.8665 117.583L27.4996 119.587C31.7492 120.603 39.6285 113.098 50.1637 101.346C65.1255 122.069 77.6085 140.698 84.5139 140.579L89.7078 139.831C81.6809 140.01 66.6306 116.238 53.2918 97.8471C54.2952 96.7108 55.328 95.5147 56.3904 94.3186C81.976 129.634 87.8486 139.293 94.6951 139.173L99.8889 138.426C93.249 138.575 88.5864 130.77 59.489 90.7601C60.5219 89.564 61.5548 88.3679 62.5876 87.1418C93.4851 129.485 97.9707 137.409 104.375 137.349C106.086 137.319 108.27 137.259 109.509 136.631C120.399 131.01 138.016 24.166 136.954 11.7263C136.895 11.0385 136.511 10.5302 135.951 10.291ZM65.6567 83.5236C72.5917 75.4497 104.758 39.1773 112.106 30.8045C111.25 37.5925 98.4429 102.691 92.8359 120.872C92.0096 119.706 80.2939 103.559 65.6567 83.5236ZM96.2591 125.507C104.552 102.123 116.179 33.4957 117.566 24.6743C119.513 22.5213 121.373 20.5776 123.114 18.8432C122.287 27.7843 107.355 111.453 99.7414 129.784C98.6495 128.528 97.4986 127.122 96.2591 125.507ZM106.145 135.555C105.171 135.017 104.138 134.239 102.988 133.193C111.988 117.194 127.57 22.4316 127.983 14.3877C129.754 12.9224 131.377 11.8459 132.823 11.1881C133.472 22.8503 115.972 123.265 106.145 135.555Z" fill="url(#paint2_linear_198_102)"/>
<defs>
<linearGradient id="paint0_linear_198_102" x1="0" y1="70.2896" x2="140.049" y2="70.2896" gradientUnits="userSpaceOnUse">
<stop stop-color="#98D4F8"/>
<stop offset="0.226491" stop-color="#4EAFFF"/>
<stop offset="1" stop-color="#4E67FF"/>
</linearGradient>
<linearGradient id="paint1_linear_198_102" x1="0" y1="70.2896" x2="140.049" y2="70.2896" gradientUnits="userSpaceOnUse">
<stop stop-color="#98D4F8"/>
<stop offset="0.226491" stop-color="#4EAFFF"/>
<stop offset="1" stop-color="#4E67FF"/>
</linearGradient>
<linearGradient id="paint2_linear_198_102" x1="0" y1="70.2896" x2="140.049" y2="70.2896" gradientUnits="userSpaceOnUse">
<stop stop-color="#98D4F8"/>
<stop offset="0.226491" stop-color="#4EAFFF"/>
<stop offset="1" stop-color="#4E67FF"/>
</linearGradient>
</defs>
</svg>
