<svg width="289" height="71" viewBox="0 0 289 71" fill="none" xmlns="http://www.w3.org/2000/svg">
<g clip-path="url(#clip0_303_209)">
<path d="M44.1778 9.14348L42.537 8.44288C37.9036 7.17762 8.99894 47.6554 4.39648 46.5575L6.01663 47.2581C10.6088 48.3456 39.5134 7.86776 44.1778 9.14348Z" fill="#4E67FF"/>
<path d="M40.8249 7.73063L39.2047 7.03003C36.4288 6.27715 27.0278 18.0095 17.5133 28.9054C14.8096 25.2874 13.2308 23.9071 11.7964 23.9908L9.98014 24.2313C11.6209 24.0953 13.3236 25.8416 16.4401 30.1393C16.0789 30.5576 15.7177 30.9758 15.3566 31.3836C14.9438 30.8085 10.7747 24.3567 8.1536 24.5031L6.33739 24.7436C9.01011 24.5345 13.4475 31.4882 14.2833 32.6384C13.9222 33.0672 13.561 33.4854 13.1998 33.8932C11.3836 31.0072 7.16294 25.0051 4.60373 25.0051C4.60373 25.0051 3.43763 24.9319 2.36441 25.256C-0.328952 26.0821 -0.607576 42.7814 0.971294 45.061C1.01257 45.1237 1.08481 45.176 1.15704 45.2178C1.49758 45.3747 2.6224 45.8661 2.6224 45.8661C7.24549 46.9641 36.1914 6.46537 40.8249 7.73063ZM5.21257 42.6768C5.07842 40.0627 5.23321 29.4701 6.03812 27.1069C6.44058 27.5356 6.874 28.0375 7.33837 28.6231C7.24549 29.857 6.70889 37.6576 6.85336 41.0247C6.27547 41.6312 5.72854 42.1854 5.21257 42.6768ZM12.1266 35.1271C10.847 36.612 9.6396 37.9923 8.51478 39.2261C8.5251 38.5987 8.60766 31.9692 8.90692 30.683C9.04107 30.8713 10.5064 32.8894 12.1266 35.1271ZM3.62338 25.4861C3.9536 25.5906 4.29414 25.7684 4.66564 26.0194C3.57179 28.9263 3.14869 40.1672 3.7369 43.963C3.25188 44.3395 2.80815 44.6427 2.41601 44.8518C2.40569 44.7891 2.39537 44.7264 2.37473 44.6636C1.42535 41.5371 1.6111 26.3226 3.62338 25.4861Z" fill="#4E67FF"/>
<path d="M47.544 10.5942L46.1921 10.0296C41.5278 8.75384 12.6128 49.2107 8 48.1128L9.62015 48.8134C11.1061 49.1689 13.8614 46.5443 17.5455 42.4348C22.7774 49.6813 27.1425 56.1958 29.5572 56.154L31.3735 55.8926C28.5666 55.9553 23.3037 47.6422 18.6393 41.2114C18.9902 40.814 19.3513 40.3958 19.7228 39.9775C28.6698 52.3268 30.7233 55.7043 33.1174 55.6625L34.9337 55.4011C32.6118 55.4534 30.9813 52.7242 20.8064 38.7331C21.1676 38.3149 21.5287 37.8966 21.8899 37.4679C32.6943 52.2745 34.2629 55.0456 36.5022 55.0247C37.1007 55.0142 37.8644 54.9933 38.2978 54.7737C42.1056 52.8078 48.2663 15.4461 47.8948 11.0961C47.8742 10.8556 47.74 10.6779 47.544 10.5942ZM22.9631 36.2026C25.3882 33.3793 36.6364 20.6954 39.2059 17.7675C38.9066 20.1412 34.428 42.9054 32.4673 49.263C32.1784 48.8552 28.0816 43.2086 22.9631 36.2026ZM33.6644 50.8838C36.5641 42.7067 40.63 18.7086 41.115 15.6239C41.7961 14.871 42.4462 14.1913 43.055 13.5848C42.7661 16.7114 37.5445 45.9692 34.8821 52.3791C34.5002 51.9399 34.0978 51.4485 33.6644 50.8838ZM37.1214 54.3973C36.7808 54.209 36.4197 53.9372 36.0172 53.5712C39.1646 47.9768 44.6133 14.8396 44.7577 12.0268C45.3769 11.5144 45.9445 11.138 46.4501 10.9079C46.6771 14.986 40.5577 50.0996 37.1214 54.3973Z" fill="#4E67FF"/>
</g>
<g filter="url(#filter0_d_303_209)">
<path d="M72.1359 30.0013C67.3524 28.4639 65.3312 27.5615 65.3312 24.7207C65.3312 22.047 67.9588 21.1112 71.2601 21.1112C75.9762 21.1112 78.4354 23.083 78.4354 27.0268H83.32C83.32 22.1807 80.524 17.134 71.2601 17.134C64.4553 17.134 60.4466 20.2088 60.4466 24.8878C60.4466 30.2352 64.9943 31.9397 70.62 33.7111C75.4709 35.1816 79.4797 35.85 79.4797 39.6935C79.4797 42.7014 77.3237 43.7709 72.7423 43.7709C67.0155 43.7709 64.0174 41.398 64.0174 36.2845H59.0654C59.0654 43.2696 63.0068 47.7146 72.6412 47.7146C81.5346 47.7146 84.3643 43.9046 84.3643 39.4595C84.3306 33.1763 77.9974 31.8729 72.1359 30.0013Z" fill="black"/>
<path d="M104.475 43.7375C97.1318 43.7375 94.4368 38.9248 94.1336 33.3768H117.613V31.4718C117.613 22.4146 112.122 17.134 103.734 17.134C95.3127 17.134 89.3164 22.5817 89.3164 32.0734C89.3164 40.5624 93.7968 47.7815 104.442 47.7815C113.874 47.7815 117.479 41.4314 118.59 36.8861H113.706C112.661 41.3646 109.36 43.7375 104.475 43.7375ZM103.768 21.2114C109.697 21.2114 112.864 24.9546 112.864 29.7005H94.1673C94.1336 24.9546 97.9066 21.2114 103.768 21.2114Z" fill="black"/>
<path d="M142.306 17.134C135.838 17.134 132.099 20.8772 130.886 26.1912H129.505L130.28 22.8157V17.7022H125.396V47.1799H130.28V34.1455C130.28 26.1912 134.693 21.2783 140.993 21.2783C146.079 21.2783 148.538 23.6512 148.538 29.8008V47.1799H153.389V29.1657C153.356 20.9775 148.976 17.134 142.306 17.134Z" fill="black"/>
<path d="M172.524 30.0013C167.74 28.4639 165.719 27.5615 165.719 24.7207C165.719 22.047 168.346 21.1112 171.648 21.1112C176.364 21.1112 178.823 23.083 178.823 27.0268H183.708C183.708 22.1807 180.912 17.134 171.648 17.134C164.843 17.134 160.834 20.2088 160.834 24.8878C160.834 30.2352 165.382 31.9397 171.008 33.7111C175.859 35.1816 179.867 35.85 179.867 39.6935C179.867 42.7014 177.711 43.7709 173.13 43.7709C167.403 43.7709 164.405 41.398 164.405 36.2845H159.453C159.453 43.2696 163.394 47.7146 173.029 47.7146C181.922 47.7146 184.752 43.9046 184.752 39.4595C184.718 33.1763 178.385 31.8729 172.524 30.0013Z" fill="black"/>
<path d="M205.469 17.134C195.969 17.134 189.737 23.8852 189.737 32.441C189.737 41.0303 195.936 47.7815 205.469 47.7815C214.901 47.7815 221.066 41.0303 221.066 32.441C221.066 23.8852 214.901 17.134 205.469 17.134ZM205.469 43.6372C198.428 43.6372 194.656 38.5906 194.656 32.441C194.656 26.3249 198.428 21.3117 205.469 21.3117C212.476 21.3117 216.215 26.3583 216.215 32.441C216.215 38.5906 212.442 43.6372 205.469 43.6372Z" fill="black"/>
<rect x="227" y="10" width="52.7417" height="42.6474" rx="6" fill="url(#paint0_linear_303_209)"/>
<path d="M259.444 41.9016V29.3351C259.444 21.4477 254.492 16 246.172 16C237.75 16 233.101 21.4477 233.101 27.5638H237.885C237.885 21.9824 241.893 20.0774 246.205 20.0774C251.359 20.0774 254.256 22.7511 254.56 28.132L242.736 29.2683C235.796 29.9702 233 33.1786 233 37.8576C233 40.9324 234.314 46.6474 242.904 46.6474C250.079 46.6474 253.246 42.4363 254.391 37.9245H255.84L255.065 40.9992V42.6035C255.065 44.8093 256.311 46.0459 258.602 46.0459H263.857V41.9016H259.444ZM243.51 42.5032C240.041 42.5032 237.885 40.665 237.885 37.2894C237.885 34.3818 239.805 33.2455 243.578 32.9112L254.56 31.7749C254.56 37.8576 250.248 42.5032 243.51 42.5032Z" fill="white"/>
<path d="M272.967 25.0613H273.742V16.5723H268.857V46.05H273.742V33.0156C273.742 25.0613 273.742 25.0613 273.742 25.0613H272.967L268.857 28.8917V46.0752L273.742 46.05L272.881 26.0278L272.967 25.0613Z" fill="white"/>
</g>
<defs>
<filter id="filter0_d_303_209" x="40.0654" y="0" width="248.677" height="70.6475" filterUnits="userSpaceOnUse" color-interpolation-filters="sRGB">
<feFlood flood-opacity="0" result="BackgroundImageFix"/>
<feColorMatrix in="SourceAlpha" type="matrix" values="0 0 0 0 0 0 0 0 0 0 0 0 0 0 0 0 0 0 127 0" result="hardAlpha"/>
<feOffset dx="-5" dy="4"/>
<feGaussianBlur stdDeviation="7"/>
<feComposite in2="hardAlpha" operator="out"/>
<feColorMatrix type="matrix" values="0 0 0 0 0 0 0 0 0 0 0 0 0 0 0 0 0 0 0.13 0"/>
<feBlend mode="normal" in2="BackgroundImageFix" result="effect1_dropShadow_303_209"/>
<feBlend mode="normal" in="SourceGraphic" in2="effect1_dropShadow_303_209" result="shape"/>
</filter>
<linearGradient id="paint0_linear_303_209" x1="227" y1="31.3237" x2="280.916" y2="31.3237" gradientUnits="userSpaceOnUse">
<stop stop-color="#4E67FF"/>
<stop offset="0.773509" stop-color="#4EAFFF"/>
<stop offset="1" stop-color="#98D4F8"/>
</linearGradient>
<clipPath id="clip0_303_209">
<rect width="47.6757" height="49" fill="white" transform="translate(0 7)"/>
</clipPath>
</defs>
</svg>
