<svg width="370" height="69" viewBox="0 0 370 69" fill="none" xmlns="http://www.w3.org/2000/svg">
<g clip-path="url(#clip0_174_2)">
<path d="M44.1773 2.14372L42.5365 1.44312C37.9031 0.177864 8.99845 40.6557 4.396 39.5577L6.01614 40.2583C10.6083 41.3458 39.513 0.868005 44.1773 2.14372Z" fill="#4E67FF"/>
<path d="M40.8249 0.730749L39.2047 0.0301517C36.4288 -0.722729 27.0278 11.0097 17.5133 21.9055C14.8096 18.2875 13.2308 16.9072 11.7964 16.9909L9.98014 17.2314C11.6209 17.0955 13.3236 18.8417 16.4401 23.1394C16.0789 23.5577 15.7177 23.9759 15.3566 24.3838C14.9438 23.8086 10.7747 17.3569 8.1536 17.5033L6.33739 17.7438C9.01011 17.5346 13.4475 24.4883 14.2833 25.6386C13.9222 26.0673 13.561 26.4855 13.1998 26.8934C11.3836 24.0073 7.16294 18.0052 4.60373 18.0052C4.60373 18.0052 3.43763 17.932 2.36441 18.2561C-0.328952 19.0822 -0.607576 35.7815 0.971294 38.0611C1.01257 38.1238 1.08481 38.1761 1.15704 38.2179C1.49758 38.3748 2.6224 38.8663 2.6224 38.8663C7.24549 39.9642 36.1914 -0.534509 40.8249 0.730749ZM5.21257 35.677C5.07842 33.0628 5.23321 22.4702 6.03812 20.107C6.44058 20.5357 6.874 21.0376 7.33837 21.6232C7.24549 22.8571 6.70889 30.6578 6.85336 34.0248C6.27547 34.6313 5.72854 35.1855 5.21257 35.677ZM12.1266 28.1272C10.847 29.6121 9.6396 30.9924 8.51478 32.2263C8.5251 31.5989 8.60766 24.9693 8.90692 23.6832C9.04107 23.8714 10.5064 25.8895 12.1266 28.1272ZM3.62338 18.4862C3.9536 18.5908 4.29414 18.7685 4.66564 19.0195C3.57179 21.9264 3.14869 33.1674 3.7369 36.9631C3.25188 37.3396 2.80815 37.6428 2.41601 37.852C2.40569 37.7892 2.39537 37.7265 2.37473 37.6637C1.42535 34.5372 1.6111 19.3227 3.62338 18.4862Z" fill="#4E67FF"/>
<path d="M47.3145 3.45078L45.9626 2.88612C41.2983 1.6104 12.3833 42.0673 7.77051 40.9694L9.39065 41.67C10.8766 42.0255 13.6319 39.4009 17.316 35.2914C22.5479 42.5379 26.913 49.0524 29.3278 49.0105L31.144 48.7491C28.3371 48.8119 23.0742 40.4988 18.4098 34.0679C18.7607 33.6706 19.1219 33.2523 19.4934 32.8341C28.4403 45.1834 30.4938 48.5609 32.8879 48.5191L34.7042 48.2577C32.3823 48.3099 30.7518 45.5807 20.5769 31.5897C20.9381 31.1714 21.2993 30.7532 21.6604 30.3245C32.4649 45.1311 34.0334 47.9021 36.2727 47.8812C36.8712 47.8708 37.6349 47.8498 38.0683 47.6303C41.8762 45.6644 48.0368 8.30268 47.6653 3.9527C47.6447 3.7122 47.5106 3.53443 47.3145 3.45078ZM22.7337 29.0592C25.1587 26.2359 36.4069 13.5519 38.9764 10.6241C38.6771 12.9977 34.1985 35.7619 32.2378 42.1196C31.9489 41.7118 27.8521 36.0652 22.7337 29.0592ZM33.4349 43.7404C36.3346 35.5632 40.4005 11.5652 40.8855 8.48044C41.5666 7.72756 42.2167 7.04788 42.8255 6.44139C42.5366 9.56794 37.315 38.8257 34.6526 45.2357C34.2708 44.7965 33.8683 44.305 33.4349 43.7404ZM36.8919 47.2538C36.5513 47.0656 36.1902 46.7937 35.7877 46.4277C38.9351 40.8334 44.3838 7.69619 44.5282 4.88335C45.1474 4.37097 45.715 3.99453 46.2206 3.76448C46.4477 7.84259 40.3282 42.9561 36.8919 47.2538Z" fill="#4E67FF"/>
</g>
<g filter="url(#filter0_d_174_2)">
<path d="M72.1364 23.0013C67.3529 21.4639 65.3317 20.5615 65.3317 17.7207C65.3317 15.047 67.9593 14.1112 71.2606 14.1112C75.9767 14.1112 78.4359 16.083 78.4359 20.0268H83.3205C83.3205 15.1807 80.5244 10.134 71.2606 10.134C64.4558 10.134 60.4471 13.2088 60.4471 17.8878C60.4471 23.2352 64.9948 24.9397 70.6205 26.7111C75.4714 28.1816 79.4802 28.85 79.4802 32.6935C79.4802 35.7014 77.3242 36.7709 72.7428 36.7709C67.016 36.7709 64.0179 34.398 64.0179 29.2845H59.0659C59.0659 36.2696 63.0073 40.7146 72.6417 40.7146C81.535 40.7146 84.3647 36.9046 84.3647 32.4595C84.3311 26.1763 77.9979 24.8729 72.1364 23.0013Z" fill="black"/>
<path d="M104.475 36.7375C97.1318 36.7375 94.4368 31.9248 94.1336 26.3768H117.613V24.4718C117.613 15.4146 112.122 10.134 103.734 10.134C95.3127 10.134 89.3164 15.5817 89.3164 25.0734C89.3164 33.5624 93.7968 40.7815 104.442 40.7815C113.874 40.7815 117.479 34.4314 118.59 29.8861H113.706C112.661 34.3646 109.36 36.7375 104.475 36.7375ZM103.768 14.2114C109.697 14.2114 112.864 17.9546 112.864 22.7005H94.1673C94.1336 17.9546 97.9066 14.2114 103.768 14.2114Z" fill="black"/>
<path d="M142.307 10.134C135.839 10.134 132.1 13.8772 130.887 19.1912H129.506L130.281 15.8157V10.7022H125.396V40.1799H130.281V27.1455C130.281 19.1912 134.694 14.2783 140.993 14.2783C146.08 14.2783 148.539 16.6512 148.539 22.8008V40.1799H153.39V22.1657C153.356 13.9775 148.977 10.134 142.307 10.134Z" fill="black"/>
<path d="M267.65 19.0836H268.425V10.5946H263.541V40.0723H268.425V27.0379C268.425 19.0836 268.425 19.0836 268.425 19.0836H267.65L263.541 22.914V40.0975L268.425 40.0723L267.564 20.0501L267.65 19.0836Z" fill="#4E67FF"/>
<path d="M172.524 23.0013C167.741 21.4639 165.719 20.5615 165.719 17.7207C165.719 15.047 168.347 14.1112 171.648 14.1112C176.364 14.1112 178.824 16.083 178.824 20.0268H183.708C183.708 15.1807 180.912 10.134 171.648 10.134C164.844 10.134 160.835 13.2088 160.835 17.8878C160.835 23.2352 165.382 24.9397 171.008 26.7111C175.859 28.1816 179.868 28.85 179.868 32.6935C179.868 35.7014 177.712 36.7709 173.13 36.7709C167.404 36.7709 164.406 34.398 164.406 29.2845H159.454C159.454 36.2696 163.395 40.7146 173.029 40.7146C181.923 40.7146 184.752 36.9046 184.752 32.4595C184.719 26.1763 178.386 24.8729 172.524 23.0013Z" fill="black"/>
<path d="M205.469 10.134C195.969 10.134 189.737 16.8852 189.737 25.441C189.737 34.0303 195.936 40.7815 205.469 40.7815C214.901 40.7815 221.066 34.0303 221.066 25.441C221.066 16.8852 214.901 10.134 205.469 10.134ZM205.469 36.6372C198.428 36.6372 194.656 31.5906 194.656 25.441C194.656 19.3249 198.428 14.3117 205.469 14.3117C212.476 14.3117 216.215 19.3583 216.215 25.441C216.215 31.5906 212.442 36.6372 205.469 36.6372Z" fill="black"/>
<path d="M254.481 36.0356V23.4692C254.481 15.5817 249.529 10.134 241.208 10.134C232.786 10.134 228.138 15.5817 228.138 21.6978H232.921C232.921 16.1165 236.93 14.2114 241.242 14.2114C246.396 14.2114 249.293 16.8852 249.596 22.266L237.772 23.4023C230.833 24.1042 228.037 27.3126 228.037 31.9916C228.037 35.0664 229.35 40.7815 237.941 40.7815C245.116 40.7815 248.282 36.5704 249.428 32.0585H250.876L250.102 35.1333V36.7375C250.102 38.9433 251.348 40.1799 253.639 40.1799H258.894V36.0356H254.481ZM238.547 36.6372C235.077 36.6372 232.921 34.799 232.921 31.4235C232.921 28.5158 234.841 27.3795 238.614 27.0453L249.596 25.9089C249.596 31.9916 245.284 36.6372 238.547 36.6372Z" fill="#4E67FF"/>
</g>
<g filter="url(#filter1_d_174_2)">
<rect x="277.425" y="10.6" width="66" height="27.8" rx="13.9" fill="url(#paint0_linear_174_2)" shape-rendering="crispEdges"/>
<path d="M291 19.007H294.569C296.116 19.007 297.284 19.2312 298.071 19.6797C298.859 20.1281 299.253 20.902 299.253 22.0012C299.253 22.4605 299.171 22.8762 299.007 23.248C298.848 23.6145 298.616 23.918 298.309 24.1586C298.003 24.3937 297.626 24.5523 297.177 24.6344V24.7164C297.642 24.7984 298.055 24.9434 298.416 25.1512C298.782 25.359 299.069 25.657 299.277 26.0453C299.491 26.4336 299.597 26.9367 299.597 27.5547C299.597 28.2875 299.422 28.9109 299.072 29.425C298.728 29.9391 298.233 30.3301 297.587 30.598C296.948 30.866 296.187 31 295.307 31H291V19.007ZM292.969 23.9535H294.856C295.747 23.9535 296.365 23.8086 296.71 23.5187C297.054 23.2289 297.226 22.8051 297.226 22.2473C297.226 21.6785 297.021 21.2684 296.611 21.0168C296.207 20.7652 295.561 20.6395 294.675 20.6395H292.969V23.9535ZM292.969 25.5449V29.3512H295.044C295.963 29.3512 296.608 29.1734 296.98 28.818C297.352 28.4625 297.538 27.9812 297.538 27.3742C297.538 27.0023 297.453 26.6797 297.284 26.4062C297.12 26.1328 296.849 25.9223 296.472 25.7746C296.094 25.6215 295.586 25.5449 294.946 25.5449H292.969ZM308.867 31H302.075V19.007H308.867V20.6641H304.043V23.9207H308.563V25.5695H304.043V29.3348H308.867V31ZM315.618 31H313.641V20.6805H310.13V19.007H319.121V20.6805H315.618V31ZM328.39 31L327.217 27.6695H322.632L321.458 31H319.383L323.846 18.9578H326.028L330.482 31H328.39ZM326.708 25.9797L325.568 22.6984C325.525 22.5562 325.462 22.3566 325.38 22.0996C325.298 21.8371 325.216 21.5719 325.133 21.3039C325.051 21.0305 324.983 20.8008 324.928 20.6148C324.874 20.8391 324.805 21.0906 324.723 21.3695C324.647 21.643 324.57 21.9 324.494 22.1406C324.423 22.3812 324.368 22.5672 324.33 22.6984L323.181 25.9797H326.708Z" fill="white"/>
</g>
<defs>
<filter id="filter0_d_174_2" x="40.0659" y="0.134033" width="237.359" height="58.6475" filterUnits="userSpaceOnUse" color-interpolation-filters="sRGB">
<feFlood flood-opacity="0" result="BackgroundImageFix"/>
<feColorMatrix in="SourceAlpha" type="matrix" values="0 0 0 0 0 0 0 0 0 0 0 0 0 0 0 0 0 0 127 0" result="hardAlpha"/>
<feOffset dx="-5" dy="4"/>
<feGaussianBlur stdDeviation="7"/>
<feComposite in2="hardAlpha" operator="out"/>
<feColorMatrix type="matrix" values="0 0 0 0 0 0 0 0 0 0 0 0 0 0 0 0 0 0 0.13 0"/>
<feBlend mode="normal" in2="BackgroundImageFix" result="effect1_dropShadow_174_2"/>
<feBlend mode="normal" in="SourceGraphic" in2="effect1_dropShadow_174_2" result="shape"/>
</filter>
<filter id="filter1_d_174_2" x="272.625" y="9.39998" width="97.2" height="59" filterUnits="userSpaceOnUse" color-interpolation-filters="sRGB">
<feFlood flood-opacity="0" result="BackgroundImageFix"/>
<feColorMatrix in="SourceAlpha" type="matrix" values="0 0 0 0 0 0 0 0 0 0 0 0 0 0 0 0 0 0 127 0" result="hardAlpha"/>
<feOffset dx="10.8" dy="14.4"/>
<feGaussianBlur stdDeviation="7.8"/>
<feComposite in2="hardAlpha" operator="out"/>
<feColorMatrix type="matrix" values="0 0 0 0 0 0 0 0 0 0 0 0 0 0 0 0 0 0 0.06 0"/>
<feBlend mode="normal" in2="BackgroundImageFix" result="effect1_dropShadow_174_2"/>
<feBlend mode="normal" in="SourceGraphic" in2="effect1_dropShadow_174_2" result="shape"/>
</filter>
<linearGradient id="paint0_linear_174_2" x1="266.115" y1="6.36954" x2="343.175" y2="48.8062" gradientUnits="userSpaceOnUse">
<stop stop-color="#4E67FF"/>
<stop offset="1" stop-color="#4EAFFF"/>
</linearGradient>
<clipPath id="clip0_174_2">
<rect width="47.6757" height="49" fill="white"/>
</clipPath>
</defs>
</svg>
