<svg width="278" height="59" viewBox="0 0 278 59" fill="none" xmlns="http://www.w3.org/2000/svg">
<g clip-path="url(#clip0_301_157)">
<path d="M44.1778 2.14348L42.537 1.44288C37.9036 0.17762 8.99894 40.6554 4.39648 39.5575L6.01663 40.2581C10.6088 41.3456 39.5134 0.867761 44.1778 2.14348Z" fill="#4E67FF"/>
<path d="M40.8249 0.730627L39.2047 0.0300296C36.4288 -0.722851 27.0278 11.0095 17.5133 21.9054C14.8096 18.2874 13.2308 16.9071 11.7964 16.9908L9.98014 17.2313C11.6209 17.0953 13.3236 18.8416 16.4401 23.1393C16.0789 23.5576 15.7177 23.9758 15.3566 24.3836C14.9438 23.8085 10.7747 17.3567 8.1536 17.5031L6.33739 17.7436C9.01011 17.5345 13.4475 24.4882 14.2833 25.6384C13.9222 26.0672 13.561 26.4854 13.1998 26.8932C11.3836 24.0072 7.16294 18.0051 4.60373 18.0051C4.60373 18.0051 3.43763 17.9319 2.36441 18.256C-0.328952 19.0821 -0.607576 35.7814 0.971294 38.061C1.01257 38.1237 1.08481 38.176 1.15704 38.2178C1.49758 38.3747 2.6224 38.8661 2.6224 38.8661C7.24549 39.9641 36.1914 -0.534631 40.8249 0.730627ZM5.21257 35.6768C5.07842 33.0627 5.23321 22.4701 6.03812 20.1069C6.44058 20.5356 6.874 21.0375 7.33837 21.6231C7.24549 22.857 6.70889 30.6576 6.85336 34.0247C6.27547 34.6312 5.72854 35.1854 5.21257 35.6768ZM12.1266 28.1271C10.847 29.612 9.6396 30.9923 8.51478 32.2261C8.5251 31.5987 8.60766 24.9692 8.90692 23.683C9.04107 23.8713 10.5064 25.8894 12.1266 28.1271ZM3.62338 18.4861C3.9536 18.5906 4.29414 18.7684 4.66564 19.0194C3.57179 21.9263 3.14869 33.1672 3.7369 36.963C3.25188 37.3395 2.80815 37.6427 2.41601 37.8518C2.40569 37.7891 2.39537 37.7264 2.37473 37.6636C1.42535 34.5371 1.6111 19.3226 3.62338 18.4861Z" fill="#4E67FF"/>
<path d="M47.544 3.59421L46.1921 3.02955C41.5278 1.75384 12.6128 42.2107 8 41.1128L9.62015 41.8134C11.1061 42.1689 13.8614 39.5443 17.5455 35.4348C22.7774 42.6813 27.1425 49.1958 29.5572 49.154L31.3735 48.8926C28.5666 48.9553 23.3037 40.6422 18.6393 34.2114C18.9902 33.814 19.3513 33.3958 19.7228 32.9775C28.6698 45.3268 30.7233 48.7043 33.1174 48.6625L34.9337 48.4011C32.6118 48.4534 30.9813 45.7242 20.8064 31.7331C21.1676 31.3149 21.5287 30.8966 21.8899 30.4679C32.6943 45.2745 34.2629 48.0456 36.5022 48.0247C37.1007 48.0142 37.8644 47.9933 38.2978 47.7737C42.1056 45.8078 48.2663 8.44611 47.8948 4.09613C47.8742 3.85563 47.74 3.67787 47.544 3.59421ZM22.9631 29.2026C25.3882 26.3793 36.6364 13.6954 39.2059 10.7675C38.9066 13.1412 34.428 35.9054 32.4673 42.263C32.1784 41.8552 28.0816 36.2086 22.9631 29.2026ZM33.6644 43.8838C36.5641 35.7067 40.63 11.7086 41.115 8.62388C41.7961 7.871 42.4462 7.19131 43.055 6.58482C42.7661 9.71137 37.5445 38.9692 34.8821 45.3791C34.5002 44.9399 34.0978 44.4485 33.6644 43.8838ZM37.1214 47.3973C36.7808 47.209 36.4197 46.9372 36.0172 46.5712C39.1646 40.9768 44.6133 7.83963 44.7577 5.02678C45.3769 4.5144 45.9445 4.13796 46.4501 3.90791C46.6771 7.98602 40.5577 43.0996 37.1214 47.3973Z" fill="#4E67FF"/>
</g>
<g filter="url(#filter0_d_301_157)">
<path d="M72.1359 23.0013C67.3524 21.4639 65.3312 20.5615 65.3312 17.7207C65.3312 15.047 67.9588 14.1112 71.2601 14.1112C75.9762 14.1112 78.4354 16.083 78.4354 20.0268H83.32C83.32 15.1807 80.524 10.134 71.2601 10.134C64.4553 10.134 60.4466 13.2088 60.4466 17.8878C60.4466 23.2352 64.9943 24.9397 70.62 26.7111C75.4709 28.1816 79.4797 28.85 79.4797 32.6935C79.4797 35.7014 77.3237 36.7709 72.7423 36.7709C67.0155 36.7709 64.0174 34.398 64.0174 29.2845H59.0654C59.0654 36.2696 63.0068 40.7146 72.6412 40.7146C81.5346 40.7146 84.3643 36.9046 84.3643 32.4595C84.3306 26.1763 77.9974 24.8729 72.1359 23.0013Z" fill="black"/>
<path d="M104.475 36.7375C97.1318 36.7375 94.4368 31.9248 94.1336 26.3768H117.613V24.4718C117.613 15.4146 112.122 10.134 103.734 10.134C95.3127 10.134 89.3164 15.5817 89.3164 25.0734C89.3164 33.5624 93.7968 40.7815 104.442 40.7815C113.874 40.7815 117.479 34.4314 118.59 29.8861H113.706C112.661 34.3646 109.36 36.7375 104.475 36.7375ZM103.768 14.2114C109.697 14.2114 112.864 17.9546 112.864 22.7005H94.1673C94.1336 17.9546 97.9066 14.2114 103.768 14.2114Z" fill="black"/>
<path d="M142.306 10.134C135.838 10.134 132.099 13.8772 130.886 19.1912H129.505L130.28 15.8157V10.7022H125.396V40.1799H130.28V27.1455C130.28 19.1912 134.693 14.2783 140.993 14.2783C146.079 14.2783 148.538 16.6512 148.538 22.8008V40.1799H153.389V22.1657C153.356 13.9775 148.976 10.134 142.306 10.134Z" fill="black"/>
<path d="M267.65 19.0835H268.425V10.5945H263.54V40.0722H268.425V27.0378C268.425 19.0835 268.425 19.0835 268.425 19.0835H267.65L263.54 22.9139V40.0974L268.425 40.0722L267.563 20.05L267.65 19.0835Z" fill="url(#paint0_linear_301_157)"/>
<path d="M172.524 23.0013C167.74 21.4639 165.719 20.5615 165.719 17.7207C165.719 15.047 168.346 14.1112 171.648 14.1112C176.364 14.1112 178.823 16.083 178.823 20.0268H183.708C183.708 15.1807 180.912 10.134 171.648 10.134C164.843 10.134 160.834 13.2088 160.834 17.8878C160.834 23.2352 165.382 24.9397 171.008 26.7111C175.859 28.1816 179.867 28.85 179.867 32.6935C179.867 35.7014 177.711 36.7709 173.13 36.7709C167.403 36.7709 164.405 34.398 164.405 29.2845H159.453C159.453 36.2696 163.394 40.7146 173.029 40.7146C181.922 40.7146 184.752 36.9046 184.752 32.4595C184.718 26.1763 178.385 24.8729 172.524 23.0013Z" fill="black"/>
<path d="M205.469 10.134C195.969 10.134 189.737 16.8852 189.737 25.441C189.737 34.0303 195.936 40.7815 205.469 40.7815C214.901 40.7815 221.066 34.0303 221.066 25.441C221.066 16.8852 214.901 10.134 205.469 10.134ZM205.469 36.6372C198.428 36.6372 194.656 31.5906 194.656 25.441C194.656 19.3249 198.428 14.3117 205.469 14.3117C212.476 14.3117 216.215 19.3583 216.215 25.441C216.215 31.5906 212.442 36.6372 205.469 36.6372Z" fill="black"/>
<path d="M254.48 36.0356V23.4692C254.48 15.5817 249.528 10.134 241.208 10.134C232.786 10.134 228.137 15.5817 228.137 21.6978H232.921C232.921 16.1165 236.929 14.2114 241.241 14.2114C246.395 14.2114 249.293 16.8852 249.596 22.266L237.772 23.4023C230.832 24.1042 228.036 27.3126 228.036 31.9916C228.036 35.0664 229.35 40.7815 237.94 40.7815C245.115 40.7815 248.282 36.5704 249.427 32.0585H250.876L250.101 35.1333V36.7375C250.101 38.9433 251.347 40.1799 253.638 40.1799H258.893V36.0356H254.48ZM238.546 36.6372C235.077 36.6372 232.921 34.799 232.921 31.4235C232.921 28.5158 234.841 27.3795 238.614 27.0453L249.596 25.9089C249.596 31.9916 245.284 36.6372 238.546 36.6372Z" fill="url(#paint1_linear_301_157)"/>
</g>
<defs>
<filter id="filter0_d_301_157" x="40.0654" y="0.134033" width="237.359" height="58.6475" filterUnits="userSpaceOnUse" color-interpolation-filters="sRGB">
<feFlood flood-opacity="0" result="BackgroundImageFix"/>
<feColorMatrix in="SourceAlpha" type="matrix" values="0 0 0 0 0 0 0 0 0 0 0 0 0 0 0 0 0 0 127 0" result="hardAlpha"/>
<feOffset dx="-5" dy="4"/>
<feGaussianBlur stdDeviation="7"/>
<feComposite in2="hardAlpha" operator="out"/>
<feColorMatrix type="matrix" values="0 0 0 0 0 0 0 0 0 0 0 0 0 0 0 0 0 0 0.13 0"/>
<feBlend mode="normal" in2="BackgroundImageFix" result="effect1_dropShadow_301_157"/>
<feBlend mode="normal" in="SourceGraphic" in2="effect1_dropShadow_301_157" result="shape"/>
</filter>
<linearGradient id="paint0_linear_301_157" x1="230" y1="31.5" x2="273" y2="32.5" gradientUnits="userSpaceOnUse">
<stop stop-color="#4E67FF"/>
<stop offset="0.773509" stop-color="#4EAFFF"/>
<stop offset="1" stop-color="#98D4F8"/>
</linearGradient>
<linearGradient id="paint1_linear_301_157" x1="228.036" y1="25.4578" x2="267.5" y2="28" gradientUnits="userSpaceOnUse">
<stop stop-color="#4E67FF"/>
<stop offset="0.773509" stop-color="#4EAFFF"/>
<stop offset="1" stop-color="#98D4F8"/>
</linearGradient>
<clipPath id="clip0_301_157">
<rect width="47.6757" height="49" fill="white"/>
</clipPath>
</defs>
</svg>
