<svg width="269" height="49" viewBox="0 0 269 49" fill="none" xmlns="http://www.w3.org/2000/svg">
<g clip-path="url(#clip0_301_157)">
<path d="M44.1778 2.14364L42.537 1.44305C37.9036 0.177788 8.99894 40.6556 4.39648 39.5576L6.01663 40.2582C10.6088 41.3457 39.5134 0.867929 44.1778 2.14364Z" fill="#4E67FF"/>
<path d="M40.8249 0.730719L39.2047 0.0301212C36.4288 -0.72276 27.0278 11.0096 17.5133 21.9055C14.8096 18.2875 13.2308 16.9072 11.7964 16.9909L9.98014 17.2314C11.6209 17.0954 13.3236 18.8417 16.4401 23.1394C16.0789 23.5576 15.7177 23.9759 15.3566 24.3837C14.9438 23.8086 10.7747 17.3568 8.1536 17.5032L6.33739 17.7437C9.01011 17.5346 13.4475 24.4883 14.2833 25.6385C13.9222 26.0672 13.561 26.4855 13.1998 26.8933C11.3836 24.0073 7.16294 18.0051 4.60373 18.0051C4.60373 18.0051 3.43763 17.932 2.36441 18.2561C-0.328952 19.0822 -0.607576 35.7815 0.971294 38.0611C1.01257 38.1238 1.08481 38.1761 1.15704 38.2179C1.49758 38.3748 2.6224 38.8662 2.6224 38.8662C7.24549 39.9642 36.1914 -0.534539 40.8249 0.730719ZM5.21257 35.6769C5.07842 33.0628 5.23321 22.4702 6.03812 20.1069C6.44058 20.5357 6.874 21.0376 7.33837 21.6232C7.24549 22.857 6.70889 30.6577 6.85336 34.0248C6.27547 34.6313 5.72854 35.1855 5.21257 35.6769ZM12.1266 28.1272C10.847 29.6121 9.6396 30.9923 8.51478 32.2262C8.5251 31.5988 8.60766 24.9693 8.90692 23.6831C9.04107 23.8713 10.5064 25.8895 12.1266 28.1272ZM3.62338 18.4862C3.9536 18.5907 4.29414 18.7685 4.66564 19.0194C3.57179 21.9264 3.14869 33.1673 3.7369 36.9631C3.25188 37.3396 2.80815 37.6428 2.41601 37.8519C2.40569 37.7892 2.39537 37.7264 2.37473 37.6637C1.42535 34.5372 1.6111 19.3227 3.62338 18.4862Z" fill="#4E67FF"/>
<path d="M47.544 3.59418L46.1921 3.02952C41.5278 1.75381 12.6128 42.2107 8 41.1128L9.62015 41.8134C11.1061 42.1689 13.8614 39.5443 17.5455 35.4348C22.7774 42.6813 27.1425 49.1958 29.5572 49.1539L31.3735 48.8925C28.5666 48.9553 23.3037 40.6422 18.6393 34.2113C18.9902 33.814 19.3513 33.3957 19.7228 32.9775C28.6698 45.3268 30.7233 48.7043 33.1174 48.6625L34.9337 48.4011C32.6118 48.4533 30.9813 45.7242 20.8064 31.7331C21.1676 31.3148 21.5287 30.8966 21.8899 30.4679C32.6943 45.2745 34.2629 48.0455 36.5022 48.0246C37.1007 48.0142 37.8644 47.9933 38.2978 47.7737C42.1056 45.8078 48.2663 8.44608 47.8948 4.0961C47.8742 3.8556 47.74 3.67784 47.544 3.59418ZM22.9631 29.2026C25.3882 26.3793 36.6364 13.6953 39.2059 10.7675C38.9066 13.1411 34.428 35.9053 32.4673 42.263C32.1784 41.8552 28.0816 36.2086 22.9631 29.2026ZM33.6644 43.8838C36.5641 35.7066 40.63 11.7086 41.115 8.62385C41.7961 7.87096 42.4462 7.19128 43.055 6.58479C42.7661 9.71134 37.5445 38.9691 34.8821 45.3791C34.5002 44.9399 34.0978 44.4484 33.6644 43.8838ZM37.1214 47.3972C36.7808 47.209 36.4197 46.9371 36.0172 46.5711C39.1646 40.9768 44.6133 7.83959 44.7577 5.02675C45.3769 4.51437 45.9445 4.13793 46.4501 3.90788C46.6771 7.98599 40.5577 43.0995 37.1214 47.3972Z" fill="#4E67FF"/>
</g>
<path d="M72.1359 23.0013C67.3524 21.4639 65.3312 20.5616 65.3312 17.7207C65.3312 15.047 67.9588 14.1112 71.2601 14.1112C75.9762 14.1112 78.4354 16.0831 78.4354 20.0268H83.32C83.32 15.1807 80.524 10.1341 71.2601 10.1341C64.4553 10.1341 60.4466 13.2088 60.4466 17.8878C60.4466 23.2353 64.9943 24.9398 70.62 26.7111C75.4709 28.1816 79.4797 28.8501 79.4797 32.6935C79.4797 35.7015 77.3237 36.7709 72.7423 36.7709C67.0155 36.7709 64.0174 34.398 64.0174 29.2845H59.0654C59.0654 36.2696 63.0068 40.7147 72.6412 40.7147C81.5346 40.7147 84.3643 36.9046 84.3643 32.4596C84.3306 26.1764 77.9974 24.8729 72.1359 23.0013Z" fill="black"/>
<path d="M104.475 36.7375C97.1318 36.7375 94.4368 31.9249 94.1336 26.3769H117.613V24.4719C117.613 15.4147 112.122 10.1341 103.734 10.1341C95.3127 10.1341 89.3164 15.5818 89.3164 25.0735C89.3164 33.5625 93.7968 40.7815 104.442 40.7815C113.874 40.7815 117.479 34.4315 118.59 29.8862H113.706C112.661 34.3646 109.36 36.7375 104.475 36.7375ZM103.768 14.2115C109.697 14.2115 112.864 17.9547 112.864 22.7005H94.1673C94.1336 17.9547 97.9066 14.2115 103.768 14.2115Z" fill="black"/>
<path d="M142.306 10.1341C135.838 10.1341 132.099 13.8773 130.886 19.1913H129.505L130.28 15.8157V10.7023H125.396V40.1799H130.28V27.1456C130.28 19.1913 134.693 14.2784 140.993 14.2784C146.079 14.2784 148.538 16.6513 148.538 22.8008V40.1799H153.389V22.1658C153.356 13.9776 148.976 10.1341 142.306 10.1341Z" fill="black"/>
<path d="M267.65 19.0836H268.425V10.5946H263.54V40.0723H268.425V27.0379C268.425 19.0836 268.425 19.0836 268.425 19.0836H267.65L263.54 22.914V40.0975L268.425 40.0723L267.563 20.0501L267.65 19.0836Z" fill="url(#paint0_linear_301_157)"/>
<path d="M172.524 23.0013C167.74 21.464 165.719 20.5616 165.719 17.7208C165.719 15.047 168.346 14.1112 171.648 14.1112C176.364 14.1112 178.823 16.0831 178.823 20.0268H183.708C183.708 15.1807 180.912 10.1341 171.648 10.1341C164.843 10.1341 160.834 13.2089 160.834 17.8879C160.834 23.2353 165.382 24.9398 171.008 26.7111C175.859 28.1817 179.867 28.8501 179.867 32.6936C179.867 35.7015 177.711 36.771 173.13 36.771C167.403 36.771 164.405 34.398 164.405 29.2846H159.453C159.453 36.2696 163.394 40.7147 173.029 40.7147C181.922 40.7147 184.752 36.9047 184.752 32.4596C184.718 26.1764 178.385 24.8729 172.524 23.0013Z" fill="black"/>
<path d="M205.469 10.1341C195.969 10.1341 189.737 16.8852 189.737 25.4411C189.737 34.0304 195.936 40.7815 205.469 40.7815C214.901 40.7815 221.066 34.0304 221.066 25.4411C221.066 16.8852 214.901 10.1341 205.469 10.1341ZM205.469 36.6373C198.428 36.6373 194.656 31.5906 194.656 25.4411C194.656 19.325 198.428 14.3118 205.469 14.3118C212.476 14.3118 216.215 19.3584 216.215 25.4411C216.215 31.5906 212.442 36.6373 205.469 36.6373Z" fill="black"/>
<path d="M254.48 36.0357V23.4692C254.48 15.5818 249.528 10.1341 241.208 10.1341C232.786 10.1341 228.137 15.5818 228.137 21.6979H232.921C232.921 16.1165 236.929 14.2115 241.241 14.2115C246.395 14.2115 249.293 16.8852 249.596 22.2661L237.772 23.4024C230.832 24.1042 228.036 27.3127 228.036 31.9917C228.036 35.0665 229.35 40.7815 237.94 40.7815C245.115 40.7815 248.282 36.5704 249.427 32.0585H250.876L250.101 35.1333V36.7375C250.101 38.9434 251.347 40.18 253.638 40.18H258.893V36.0357H254.48ZM238.546 36.6373C235.077 36.6373 232.921 34.7991 232.921 31.4235C232.921 28.5159 234.841 27.3795 238.614 27.0453L249.596 25.909C249.596 31.9917 245.284 36.6373 238.546 36.6373Z" fill="url(#paint1_linear_301_157)"/>
<defs>
<linearGradient id="paint0_linear_301_157" x1="230" y1="31.5001" x2="273" y2="32.5001" gradientUnits="userSpaceOnUse">
<stop stop-color="#4E67FF"/>
<stop offset="0.773509" stop-color="#4EAFFF"/>
<stop offset="1" stop-color="#98D4F8"/>
</linearGradient>
<linearGradient id="paint1_linear_301_157" x1="228.036" y1="25.4578" x2="267.5" y2="28.0001" gradientUnits="userSpaceOnUse">
<stop stop-color="#4E67FF"/>
<stop offset="0.773509" stop-color="#4EAFFF"/>
<stop offset="1" stop-color="#98D4F8"/>
</linearGradient>
<clipPath id="clip0_301_157">
<rect width="47.6757" height="49" fill="white"/>
</clipPath>
</defs>
</svg>
